<svg xmlns="http://www.w3.org/2000/svg" width="640" height="480" viewBox="0 0 640 480">
  <rect width="640" height="480" fill="#1a1a1a"/>
  <g stroke="#d4a574" fill="none" opacity="0.9">
    <path d="M260,300 Q260,200 300,150 Q320,130 340,150 Q380,200 380,300" stroke-width="1.5"/>
    <path d="M275,290 Q275,210 305,165 Q320,150 335,165 Q365,210 365,290" stroke-width="1"/>
    <path d="M290,160 Q270,120 280,90 Q300,110 290,160" stroke-width="1.2"/>
    <path d="M350,160 Q370,120 360,90 Q340,110 350,160" stroke-width="1.2"/>
    <path d="M300,150 Q310,120 320,110 Q330,120 340,150" stroke-width="1"/>
    <line x1="320" y1="150" x2="320" y2="300" stroke-width="0.8"/>
    <path d="M300,200 Q320,190 340,200" stroke-width="0.8"/>
    <path d="M295,230 Q320,218 345,230" stroke-width="0.8"/>
    <path d="M290,260 Q320,248 350,260" stroke-width="0.8"/>
    <ellipse cx="320" cy="320" rx="70" ry="20" stroke-width="1"/>
    <path d="M260,300 Q290,330 320,340 Q350,330 380,300" stroke-width="1.2"/>
  </g>
  <g stroke="#d4a574" stroke-width="0.5" fill="none" opacity="0.2">
    <circle cx="320" cy="220" r="110"/>
    <circle cx="320" cy="220" r="130"/>
  </g>
  <text x="320" y="420" text-anchor="middle" font-family="serif" font-size="11" letter-spacing="4" fill="#d4a574" opacity="0.5">COVER PIECES</text>
</svg>
