<svg xmlns="http://www.w3.org/2000/svg" width="640" height="480" viewBox="0 0 640 480">
  <rect width="640" height="480" fill="#1a1a1a"/>
  <g stroke="#d4a574" fill="none" opacity="0.9">
    <circle cx="320" cy="220" r="100" stroke-width="1.5"/>
    <circle cx="320" cy="220" r="80" stroke-width="1"/>
    <circle cx="320" cy="220" r="60" stroke-width="1.5"/>
    <path d="M320,120 L320,140 M320,300 L320,320" stroke-width="2"/>
    <path d="M220,220 L240,220 M400,220 L420,220" stroke-width="2"/>
    <path d="M249,149 L263,163 M377,277 L391,291" stroke-width="2"/>
    <path d="M391,149 L377,163 M263,277 L249,291" stroke-width="2"/>
    <path d="M280,180 Q320,150 360,180 Q340,220 360,260 Q320,290 280,260 Q300,220 280,180Z" stroke-width="1.2"/>
    <circle cx="320" cy="220" r="15" stroke-width="1.5"/>
    <circle cx="320" cy="220" r="5" fill="#d4a574" opacity="0.5"/>
  </g>
  <g stroke="#d4a574" stroke-width="0.5" fill="none" opacity="0.25">
    <rect x="240" y="140" width="160" height="160" transform="rotate(45 320 220)"/>
    <rect x="255" y="155" width="130" height="130" transform="rotate(45 320 220)"/>
  </g>
  <text x="320" y="420" text-anchor="middle" font-family="serif" font-size="11" letter-spacing="4" fill="#d4a574" opacity="0.5">CULTURAL DESIGNS</text>
</svg>
