<svg xmlns="http://www.w3.org/2000/svg" width="640" height="480" viewBox="0 0 640 480">
  <rect width="640" height="480" fill="#1a1a1a"/>
  <g stroke="#d4a574" stroke-width="1.5" fill="none" opacity="0.9">
    <polygon points="320,80 420,200 370,350 270,350 220,200"/>
    <polygon points="320,120 390,210 360,320 280,320 250,210"/>
    <polygon points="320,160 360,220 345,290 295,290 280,220"/>
    <line x1="320" y1="80" x2="320" y2="350"/>
    <line x1="220" y1="200" x2="420" y2="200"/>
    <line x1="270" y1="350" x2="370" y2="350"/>
    <circle cx="320" cy="215" r="50"/>
    <circle cx="320" cy="215" r="30"/>
    <circle cx="320" cy="215" r="10"/>
  </g>
  <g stroke="#d4a574" stroke-width="0.5" fill="none" opacity="0.3">
    <line x1="220" y1="200" x2="370" y2="350"/>
    <line x1="420" y1="200" x2="270" y2="350"/>
    <line x1="320" y1="80" x2="270" y2="350"/>
    <line x1="320" y1="80" x2="370" y2="350"/>
  </g>
  <text x="320" y="420" text-anchor="middle" font-family="serif" font-size="11" letter-spacing="4" fill="#d4a574" opacity="0.5">GEOMETRIC BLACK</text>
</svg>
