<svg xmlns="http://www.w3.org/2000/svg" width="640" height="480" viewBox="0 0 640 480">
  <rect width="640" height="480" fill="#1a1a1a"/>
  <g stroke="#d4a574" fill="none" opacity="0.9">
    <ellipse cx="320" cy="180" rx="70" ry="90" stroke-width="1.5"/>
    <ellipse cx="320" cy="170" rx="55" ry="60" stroke-width="1"/>
    <path d="M280,160 Q290,140 310,145 Q320,130 330,145 Q350,140 360,160" stroke-width="1.2"/>
    <ellipse cx="300" cy="175" rx="12" ry="7" stroke-width="1"/>
    <ellipse cx="340" cy="175" rx="12" ry="7" stroke-width="1"/>
    <circle cx="300" cy="175" r="4" fill="#d4a574" opacity="0.4"/>
    <circle cx="340" cy="175" r="4" fill="#d4a574" opacity="0.4"/>
    <path d="M310,195 Q320,200 330,195" stroke-width="1.2"/>
    <path d="M300,215 Q320,228 340,215" stroke-width="1.5"/>
    <path d="M265,270 Q320,310 375,270" stroke-width="1.2"/>
    <line x1="295" y1="270" x2="285" y2="340" stroke-width="1"/>
    <line x1="345" y1="270" x2="355" y2="340" stroke-width="1"/>
  </g>
  <g stroke="#d4a574" stroke-width="0.5" fill="none" opacity="0.3">
    <circle cx="320" cy="200" r="120"/>
    <circle cx="320" cy="200" r="140"/>
  </g>
  <text x="320" y="420" text-anchor="middle" font-family="serif" font-size="11" letter-spacing="4" fill="#d4a574" opacity="0.5">PORTRAIT STUDIES</text>
</svg>
