<svg xmlns="http://www.w3.org/2000/svg" width="640" height="480" viewBox="0 0 640 480">
  <rect width="640" height="480" fill="#1a1a1a"/>
  <g stroke="#d4a574" fill="none" opacity="0.9">
    <path d="M280,120 Q260,160 270,200 Q250,240 270,280 Q260,320 280,360" stroke-width="1.5"/>
    <path d="M360,120 Q380,160 370,200 Q390,240 370,280 Q380,320 360,360" stroke-width="1.5"/>
    <path d="M280,200 Q320,180 360,200" stroke-width="1"/>
    <path d="M270,280 Q320,260 370,280" stroke-width="1"/>
    <circle cx="320" cy="160" r="25" stroke-width="1.2"/>
    <circle cx="320" cy="160" r="10" fill="#d4a574" opacity="0.3"/>
    <circle cx="320" cy="240" r="20" stroke-width="1.2"/>
    <circle cx="320" cy="240" r="8" fill="#d4a574" opacity="0.3"/>
    <circle cx="320" cy="320" r="15" stroke-width="1.2"/>
    <circle cx="320" cy="320" r="6" fill="#d4a574" opacity="0.3"/>
  </g>
  <g stroke="#d4a574" stroke-width="0.5" fill="none" opacity="0.2">
    <line x1="320" y1="100" x2="320" y2="380" stroke-dasharray="4,4"/>
  </g>
  <text x="320" y="430" text-anchor="middle" font-family="serif" font-size="11" letter-spacing="4" fill="#d4a574" opacity="0.5">SPINE PIECES</text>
</svg>
