<svg xmlns="http://www.w3.org/2000/svg" width="640" height="480" viewBox="0 0 640 480">
  <rect width="640" height="480" fill="#1a1a1a"/>
  <g stroke="#d4a574" fill="none" opacity="0.9">
    <path d="M250,300 Q260,200 300,160 Q320,140 340,160 Q380,200 390,300" stroke-width="1.5"/>
    <path d="M270,285 Q278,210 305,175 Q320,160 335,175 Q362,210 370,285" stroke-width="1"/>
    <path d="M300,160 Q280,130 290,100" stroke-width="1.2"/>
    <path d="M340,160 Q360,130 350,100" stroke-width="1.2"/>
    <path d="M250,300 Q320,330 390,300" stroke-width="1.5"/>
    <circle cx="320" cy="220" r="25" stroke-width="1"/>
    <circle cx="320" cy="220" r="12" stroke-width="0.8"/>
    <circle cx="320" cy="220" r="5" fill="#d4a574" opacity="0.3"/>
    <path d="M295,180 Q280,170 275,155" stroke-width="0.8"/>
    <path d="M345,180 Q360,170 365,155" stroke-width="0.8"/>
  </g>
  <g stroke="#d4a574" stroke-width="0.5" fill="none" opacity="0.2">
    <circle cx="320" cy="230" r="100"/>
  </g>
  <text x="320" y="420" text-anchor="middle" font-family="serif" font-size="11" letter-spacing="4" fill="#d4a574" opacity="0.5">JAPANESE</text>
</svg>
