<svg xmlns="http://www.w3.org/2000/svg" width="640" height="480" viewBox="0 0 640 480">
  <rect width="640" height="480" fill="#1a1a1a"/>
  <g stroke="#d4a574" fill="none" opacity="0.9">
    <path d="M280,300 Q260,250 280,200 Q300,160 320,140 Q340,160 360,200 Q380,250 360,300" stroke-width="1.5"/>
    <path d="M295,280 Q280,245 295,210 Q310,180 320,165 Q330,180 345,210 Q360,245 345,280" stroke-width="1"/>
    <path d="M250,310 Q320,350 390,310" stroke-width="1.2"/>
    <path d="M280,300 Q300,320 320,325 Q340,320 360,300" stroke-width="1"/>
    <circle cx="310" cy="210" r="6" stroke-width="1"/>
    <circle cx="330" cy="210" r="6" stroke-width="1"/>
    <path d="M310,240 Q320,248 330,240" stroke-width="1"/>
    <path d="M320,140 L320,120 L315,128 M320,120 L325,128" stroke-width="1"/>
    <line x1="260" y1="250" x2="240" y2="240" stroke-width="1"/>
    <line x1="380" y1="250" x2="400" y2="240" stroke-width="1"/>
  </g>
  <g stroke="#d4a574" stroke-width="0.5" fill="none" opacity="0.2">
    <path d="M240,320 Q320,370 400,320"/>
  </g>
  <text x="320" y="420" text-anchor="middle" font-family="serif" font-size="11" letter-spacing="4" fill="#d4a574" opacity="0.5">MYTHOLOGY</text>
</svg>
