<svg xmlns="http://www.w3.org/2000/svg" width="640" height="480" viewBox="0 0 640 480">
  <rect width="640" height="480" fill="#1a1a1a"/>
  <g stroke="#d4a574" fill="none" opacity="0.9">
    <path d="M250,180 Q280,140 320,130 Q360,140 390,180 Q400,220 390,260 Q360,300 320,310 Q280,300 250,260 Q240,220 250,180Z" stroke-width="1.5"/>
    <path d="M270,190 Q295,160 320,155 Q345,160 370,190 Q380,220 370,250 Q345,275 320,280 Q295,275 270,250 Q260,220 270,190Z" stroke-width="1"/>
    <path d="M290,200 L300,180 L310,200 L320,175 L330,200 L340,180 L350,200" stroke-width="1.2"/>
    <path d="M280,230 Q320,220 360,230" stroke-width="1"/>
    <path d="M280,250 Q320,240 360,250" stroke-width="1"/>
    <circle cx="300" cy="210" r="4" fill="#d4a574" opacity="0.3"/>
    <circle cx="340" cy="210" r="4" fill="#d4a574" opacity="0.3"/>
  </g>
  <g stroke="#d4a574" stroke-width="0.5" fill="none" opacity="0.2">
    <circle cx="320" cy="220" r="110"/>
  </g>
  <text x="320" y="420" text-anchor="middle" font-family="serif" font-size="11" letter-spacing="4" fill="#d4a574" opacity="0.5">NEO-TRADITIONAL</text>
</svg>
