<svg xmlns="http://www.w3.org/2000/svg" width="640" height="480" viewBox="0 0 640 480">
  <rect width="640" height="480" fill="#1a1a1a"/>
  <g stroke="#d4a574" fill="none" opacity="0.9">
    <path d="M280,160 Q300,140 320,160 Q340,140 360,160 L360,300 Q340,320 320,300 Q300,320 280,300Z" stroke-width="1.5"/>
    <path d="M280,200 L360,200" stroke-width="1"/>
    <path d="M280,240 L360,240" stroke-width="1"/>
    <path d="M280,280 L360,280" stroke-width="1"/>
    <path d="M300,160 L300,200 M340,160 L340,200" stroke-width="0.8"/>
    <path d="M300,240 L300,280 M340,240 L340,280" stroke-width="0.8"/>
    <circle cx="320" cy="220" r="12" stroke-width="1.2"/>
    <circle cx="320" cy="220" r="5" fill="#d4a574" opacity="0.3"/>
    <path d="M265,170 L250,155 M375,170 L390,155" stroke-width="1"/>
    <path d="M265,290 L250,305 M375,290 L390,305" stroke-width="1"/>
  </g>
  <g stroke="#d4a574" stroke-width="0.5" fill="none" opacity="0.15">
    <rect x="250" y="135" width="140" height="200" rx="5"/>
  </g>
  <text x="320" y="420" text-anchor="middle" font-family="serif" font-size="11" letter-spacing="4" fill="#d4a574" opacity="0.5">ORNAMEN</text>
</svg>
